<?xml version="1.0" standalone="no"?>
<!DOCTYPE svg PUBLIC "-//W3C//DTD SVG 20010904//EN"
 "http://www.w3.org/TR/2001/REC-SVG-20010904/DTD/svg10.dtd">
<svg version="1.0" xmlns="http://www.w3.org/2000/svg"
 width="3240.000000pt" height="3240.000000pt" viewBox="0 0 3240.000000 3240.000000"
 preserveAspectRatio="xMidYMid meet">
<metadata>
Created by potrace 1.11, written by Peter Selinger 2001-2013
</metadata>
<g transform="translate(0.000000,3240.000000) scale(0.100000,-0.100000)"
fill="#000000" stroke="none">
<path d="M7265 26025 c-187 -41 -281 -125 -305 -271 -12 -70 7 -185 43 -267
14 -31 140 -243 278 -470 139 -226 736 -1202 1327 -2167 1075 -1756 1222
-1995 2657 -4340 423 -690 892 -1457 1044 -1705 435 -711 485 -824 511 -1166
6 -87 10 -1229 10 -3282 0 -3462 -4 -3225 60 -3364 40 -86 96 -144 177 -181
143 -66 26 -63 2378 -59 l2130 3 90 22 c242 59 371 180 432 403 16 60 18 275
23 3379 5 2432 10 3352 18 3455 21 245 59 393 141 550 26 50 503 826 1061
1725 930 1502 1679 2710 3727 6015 490 791 763 1241 788 1300 58 134 58 228 2
308 -29 42 -91 84 -155 104 -54 17 -161 18 -2077 18 -2272 0 -2091 6 -2261
-75 -131 -63 -198 -145 -347 -425 -46 -88 -338 -626 -647 -1195 -1324 -2437
-2140 -3941 -2174 -4009 -58 -113 -129 -181 -191 -181 -33 0 -101 67 -139 140
-16 30 -278 503 -581 1050 -304 547 -956 1724 -1450 2615 -494 891 -922 1658
-951 1705 -66 107 -155 214 -218 261 -61 46 -156 83 -265 104 -74 13 -365 15
-2580 14 -2030 0 -2507 -3 -2556 -14z"/>
</g>
</svg>
